<svg xmlns="http://www.w3.org/2000/svg" xmlns:xlink="http://www.w3.org/1999/xlink" width="500" zoomAndPan="magnify" viewBox="0 0 375 374.999991" height="500" preserveAspectRatio="xMidYMid meet" version="1.0"><path fill="#ffffff" d="M 187.5 33.78125 C 237.5625 33.78125 243.5 33.96875 263.265625 34.875 C 283.703125 35.8125 304.75 40.46875 319.640625 55.359375 C 334.671875 70.390625 339.1875 91.234375 340.125 111.734375 C 341.03125 131.5 341.21875 137.4375 341.21875 187.5 C 341.21875 237.5625 341.03125 243.5 340.125 263.265625 C 339.203125 283.59375 334.4375 304.84375 319.640625 319.640625 C 304.609375 334.671875 283.78125 339.1875 263.265625 340.125 C 243.5 341.03125 237.5625 341.21875 187.5 341.21875 C 137.4375 341.21875 131.5 341.03125 111.734375 340.125 C 91.5625 339.203125 70.03125 334.328125 55.359375 319.640625 C 40.40625 304.6875 35.8125 283.640625 34.875 263.265625 C 33.96875 243.5 33.78125 237.5625 33.78125 187.5 C 33.78125 137.4375 33.96875 131.5 34.875 111.734375 C 35.796875 91.484375 40.609375 70.109375 55.359375 55.359375 C 70.359375 40.359375 91.28125 35.8125 111.734375 34.875 C 131.5 33.96875 137.4375 33.78125 187.5 33.78125 M 187.5 0 C 136.578125 0 130.1875 0.21875 110.1875 1.125 C 81.203125 2.453125 52.421875 10.515625 31.46875 31.46875 C 10.4375 52.5 2.453125 81.21875 1.125 110.1875 C 0.21875 130.1875 0 136.578125 0 187.5 C 0 238.421875 0.21875 244.8125 1.125 264.8125 C 2.453125 293.765625 10.546875 322.625 31.46875 343.53125 C 52.484375 364.546875 81.25 372.546875 110.1875 373.875 C 130.1875 374.78125 136.578125 375 187.5 375 C 238.421875 375 244.8125 374.78125 264.8125 373.875 C 293.78125 372.546875 322.59375 364.46875 343.53125 343.53125 C 364.578125 322.484375 372.546875 293.78125 373.875 264.8125 C 374.78125 244.8125 375 238.421875 375 187.5 C 375 136.578125 374.78125 130.1875 373.875 110.1875 C 372.546875 81.203125 364.46875 52.40625 343.53125 31.46875 C 322.546875 10.484375 293.703125 2.4375 264.8125 1.125 C 244.8125 0.21875 238.421875 0 187.5 0 Z M 187.5 0 " fill-opacity="1" fill-rule="nonzero"/><path fill="#ffffff" d="M 187.5 91.21875 C 134.328125 91.21875 91.21875 134.328125 91.21875 187.5 C 91.21875 240.671875 134.328125 283.78125 187.5 283.78125 C 240.671875 283.78125 283.78125 240.671875 283.78125 187.5 C 283.78125 134.328125 240.671875 91.21875 187.5 91.21875 Z M 187.5 250 C 152.984375 250 125 222.015625 125 187.5 C 125 152.984375 152.984375 125 187.5 125 C 222.015625 125 250 152.984375 250 187.5 C 250 222.015625 222.015625 250 187.5 250 Z M 187.5 250 " fill-opacity="1" fill-rule="nonzero"/><path fill="#ffffff" d="M 310.09375 87.40625 C 310.09375 88.144531 310.058594 88.878906 309.984375 89.613281 C 309.914062 90.34375 309.804688 91.074219 309.660156 91.796875 C 309.519531 92.519531 309.339844 93.234375 309.125 93.9375 C 308.910156 94.644531 308.664062 95.335938 308.382812 96.015625 C 308.097656 96.699219 307.785156 97.363281 307.4375 98.011719 C 307.089844 98.664062 306.710938 99.292969 306.300781 99.90625 C 305.890625 100.519531 305.453125 101.109375 304.988281 101.679688 C 304.519531 102.25 304.023438 102.796875 303.503906 103.316406 C 302.984375 103.835938 302.4375 104.332031 301.867188 104.800781 C 301.296875 105.265625 300.707031 105.703125 300.09375 106.113281 C 299.480469 106.523438 298.851562 106.902344 298.199219 107.25 C 297.550781 107.597656 296.886719 107.910156 296.203125 108.195312 C 295.523438 108.476562 294.832031 108.722656 294.125 108.9375 C 293.421875 109.152344 292.707031 109.332031 291.984375 109.472656 C 291.261719 109.617188 290.53125 109.726562 289.800781 109.796875 C 289.066406 109.871094 288.332031 109.90625 287.59375 109.90625 C 286.855469 109.90625 286.121094 109.871094 285.386719 109.796875 C 284.65625 109.726562 283.925781 109.617188 283.203125 109.472656 C 282.480469 109.332031 281.765625 109.152344 281.0625 108.9375 C 280.355469 108.722656 279.664062 108.476562 278.984375 108.195312 C 278.300781 107.910156 277.636719 107.597656 276.988281 107.25 C 276.335938 106.902344 275.707031 106.523438 275.09375 106.113281 C 274.480469 105.703125 273.890625 105.265625 273.320312 104.800781 C 272.75 104.332031 272.203125 103.835938 271.683594 103.316406 C 271.164062 102.796875 270.667969 102.25 270.199219 101.679688 C 269.734375 101.109375 269.296875 100.519531 268.886719 99.90625 C 268.476562 99.292969 268.097656 98.664062 267.75 98.011719 C 267.402344 97.363281 267.089844 96.699219 266.804688 96.015625 C 266.523438 95.335938 266.277344 94.644531 266.0625 93.9375 C 265.847656 93.234375 265.667969 92.519531 265.527344 91.796875 C 265.382812 91.074219 265.273438 90.34375 265.203125 89.613281 C 265.128906 88.878906 265.09375 88.144531 265.09375 87.40625 C 265.09375 86.667969 265.128906 85.933594 265.203125 85.199219 C 265.273438 84.46875 265.382812 83.738281 265.527344 83.015625 C 265.667969 82.292969 265.847656 81.578125 266.0625 80.875 C 266.277344 80.167969 266.523438 79.476562 266.804688 78.796875 C 267.089844 78.113281 267.402344 77.449219 267.75 76.800781 C 268.097656 76.148438 268.476562 75.519531 268.886719 74.90625 C 269.296875 74.292969 269.734375 73.703125 270.199219 73.132812 C 270.667969 72.5625 271.164062 72.015625 271.683594 71.496094 C 272.203125 70.976562 272.75 70.480469 273.320312 70.011719 C 273.890625 69.546875 274.480469 69.109375 275.09375 68.699219 C 275.707031 68.289062 276.335938 67.910156 276.988281 67.5625 C 277.636719 67.214844 278.300781 66.902344 278.984375 66.617188 C 279.664062 66.335938 280.355469 66.089844 281.0625 65.875 C 281.765625 65.660156 282.480469 65.480469 283.203125 65.339844 C 283.925781 65.195312 284.65625 65.085938 285.386719 65.015625 C 286.121094 64.941406 286.855469 64.90625 287.59375 64.90625 C 288.332031 64.90625 289.066406 64.941406 289.800781 65.015625 C 290.53125 65.085938 291.261719 65.195312 291.984375 65.339844 C 292.707031 65.480469 293.421875 65.660156 294.125 65.875 C 294.832031 66.089844 295.523438 66.335938 296.203125 66.617188 C 296.886719 66.902344 297.550781 67.214844 298.199219 67.5625 C 298.851562 67.910156 299.480469 68.289062 300.09375 68.699219 C 300.707031 69.109375 301.296875 69.546875 301.867188 70.011719 C 302.4375 70.480469 302.984375 70.976562 303.503906 71.496094 C 304.023438 72.015625 304.519531 72.5625 304.988281 73.132812 C 305.453125 73.703125 305.890625 74.292969 306.300781 74.90625 C 306.710938 75.519531 307.089844 76.148438 307.4375 76.800781 C 307.785156 77.449219 308.097656 78.113281 308.382812 78.796875 C 308.664062 79.476562 308.910156 80.167969 309.125 80.875 C 309.339844 81.578125 309.519531 82.292969 309.660156 83.015625 C 309.804688 83.738281 309.914062 84.46875 309.984375 85.199219 C 310.058594 85.933594 310.09375 86.667969 310.09375 87.40625 Z M 310.09375 87.40625 " fill-opacity="1" fill-rule="nonzero"/></svg>