<svg xmlns="http://www.w3.org/2000/svg" version="1.1" xmlns:xlink="http://www.w3.org/1999/xlink" width="512" height="512" x="0" y="0" viewBox="0 0 32 32" style="enable-background:new 0 0 512 512" xml:space="preserve" class=""><g><path fill="#333333" d="M16 0C7.163 0 0 7.163 0 16c0 8.836 7.163 16 16 16s16-7.164 16-16c0-8.837-7.163-16-16-16z" opacity="1" data-original="#333333" class=""></path><path fill="#ffffff" d="M16 5.534a6.754 6.754 0 0 0-6.284 9.235l.205.465L16 26.466l6.087-11.249.185-.419a6.71 6.71 0 0 0 .482-2.511A6.754 6.754 0 0 0 16 5.534zm0 9.68a2.988 2.988 0 1 1 0-5.977 2.988 2.988 0 0 1 0 5.977z" opacity="1" data-original="#ffffff" class=""></path></g></svg>