<svg xmlns="http://www.w3.org/2000/svg" version="1.1" xmlns:xlink="http://www.w3.org/1999/xlink" width="512" height="512" x="0" y="0" viewBox="0 0 8.467 8.467" style="enable-background:new 0 0 512 512" xml:space="preserve" class=""><g><path d="M4.239 0a2.25 2.25 0 0 0-1.205 4.152A4.245 4.245 0 0 0 0 8.215a.265.265 0 0 0 .265.265h7.95a.265.265 0 0 0 .265-.265 4.244 4.244 0 0 0-3.035-4.063 2.25 2.25 0 0 0 1.048-1.898A2.258 2.258 0 0 0 4.239 0zm0 .53c.954 0 1.724.77 1.724 1.724s-.769 1.72-1.723 1.721h-.001a1.717 1.717 0 0 1-1.722-1.721c0-.955.768-1.724 1.722-1.724zm0 3.975h.001A3.695 3.695 0 0 1 <svg xmlns="http://www.w3.org/2000/svg" version="1.1" xmlns:xlink="http://www.w3.org/1999/xlink" width="512" height="512" x="0" y="0" viewBox="0 0 511.985 511.985" style="enable-background:new 0 0 512 512" xml:space="preserve" class=""><g><path d="M383.993 10.445a11.338 11.338 0 0 0-3.946-8.955 6.313 6.313 0 0 0-5.5-1.326L186.372 45.7h197.621V10.445zM194.948 188.691a9.142 9.142 0 0 1 6.188 8.652v147.933a9.143 9.143 0 0 0 18.286 0V197.342a9.142 9.142 0 0 1 6.188-8.652 18.027 18.027 0 0 0 12.098-17.13v-1.685a26.57 26.57 0 0 1-27.429-5.449 26.566 26.566 0 0 1-27.429 5.449v1.685a18.028 18.028 0 0 0 12.098 17.131z" fill="#000000" opacity="1" data-original="#000000" class=""></path><path d="M402.278 63.985H109.707a9.155 9.155 0 0 0-9.143 9.143v429.714a9.155 9.155 0 0 0 9.143 9.143h292.571a9.155 9.155 0 0 0 9.143-9.143V73.128a9.155 9.155 0 0 0-9.143-9.143zm-128 33.79a9.144 9.144 0 0 1 10.424-9.054l9.054 1.281c33.103 4.705 53.665 32.451 53.665 72.415v54.857c-.01 10.095-8.191 18.276-18.286 18.286v109.714c0 15.148-12.28 27.429-27.429 27.429s-27.429-12.28-27.429-27.429V97.775zm-109.714.643a9.143 9.143 0 0 1 18.286 0v45.714a9.143 9.143 0 0 0 18.286 0V98.418a9.143 9.143 0 0 1 18.286 0v45.714a9.143 9.143 0 0 0 18.286 0V98.418a9.143 9.143 0 0 1 18.286 0v73.143a36.392 36.392 0 0 1-18.286 31.643v142.071c0 15.148-12.28 27.429-27.429 27.429s-27.429-12.28-27.429-27.429V203.204a36.396 36.396 0 0 1-18.286-31.643V98.418zm0 329.143h128a9.143 9.143 0 0 1 0 18.286h-128a9.143 9.143 0 0 1 0-18.286zm27.429 54.857h-27.429a9.143 9.143 0 0 1 0-18.286h27.429a9.143 9.143 0 0 1 0 18.286zm45.714 0h-9.143a9.143 9.143 0 0 1 0-18.286h9.143a9.143 9.143 0 0 1 0 18.286zm109.714 0h-73.143a9.143 9.143 0 0 1 0-18.286h73.143a9.143 9.143 0 0 1 0 18.286zm0-36.571h-18.286a9.143 9.143 0 0 1 0-18.286h18.286a9.143 9.143 0 0 1 0 18.286z" fill="#000000" opacity="1" data-original="#000000" class=""></path><path d="M301.707 354.418a9.155 9.155 0 0 0 9.143-9.143V226.418a9.143 9.143 0 0 1 9.143-9.143h9.143v-54.857c0-14.509-3.598-48.504-36.571-54.094v236.951a9.153 9.153 0 0 0 9.142 9.143z" fill="#000000" opacity="1" data-original="#000000" class=""></path></g></svg>