<svg xmlns="http://www.w3.org/2000/svg" version="1.1" xmlns:xlink="http://www.w3.org/1999/xlink" xmlns:svgjs="http://svgjs.dev/svgjs" width="128" height="128" viewBox="0 0 128 128"><g transform="matrix(0.8046875,0,0,0.8046875,12.41184074821259,12.814873242367177)"><svg viewBox="0 0 98 98" data-background-color="#97978d" preserveAspectRatio="xMidYMid meet" height="127" width="128" xmlns="http://www.w3.org/2000/svg" xmlns:xlink="http://www.w3.org/1999/xlink"><g id="tight-bounds" transform="matrix(1,0,0,1,0.08387967645792571,0.08387967645792571)"><svg viewBox="0 0 97.83224064708415 97.83224064708415" height="97.83224064708415" width="97.83224064708415"><g><svg></svg></g><g><svg viewBox="0 0 97.83224064708415 97.83224064708415" height="97.83224064708415" width="97.83224064708415"><g><path d="M0 48.916c0-27.016 21.9-48.916 48.916-48.916 27.016 0 48.916 21.9 48.916 48.916 0 27.016-21.9 48.916-48.916 48.916-27.016 0-48.916-21.9-48.916-48.916zM48.916 93.244c24.481 0 44.328-19.846 44.328-44.328 0-24.481-19.846-44.328-44.328-44.327-24.481 0-44.328 19.846-44.327 44.327 0 24.481 19.846 44.328 44.327 44.328z" data-fill-palette-color="tertiary" fill="#000000" stroke="transparent"></path><ellipse rx="46.95947551060039" ry="46.95947551060039" cx="48.916120323542074" cy="48.916120323542074" fill="#000000" stroke="transparent" stroke-width="0" fill-opacity="1" data-fill-palette-color="tertiary"></ellipse></g><g transform="matrix(1,0,0,1,29.12338271987444,23.47539391502934)"><svg viewBox="0 0 39.58547520733527 50.88145281702547" height="50.88145281702547" width="39.58547520733527"><g><svg viewBox="0 0 39.58547520733527 50.88145281702547" height="50.88145281702547" width="39.58547520733527"><g><svg viewBox="0 0 39.58547520733527 50.88145281702547" height="50.88145281702547" width="39.58547520733527"><g id="textblocktransform"><svg viewBox="0 0 39.58547520733527 50.88145281702547" height="50.88145281702547" width="39.58547520733527" id="textblock"><g><svg viewBox="0 0 39.58547520733527 50.88145281702547" height="50.88145281702547" width="39.58547520733527"><g><svg viewBox="0 0 39.58547520733527 50.88145281702547" height="50.88145281702547" width="39.58547520733527"><g><svg xmlns="http://www.w3.org/2000/svg" xmlns:xlink="http://www.w3.org/1999/xlink" version="1.1" x="0" y="0" viewBox="13.515999999999975 4.999995518767338 69.48400000000002 89.31171974116086" enable-background="new 0 0 100 100" xml:space="preserve" height="50.88145281702547" width="39.58547520733527" class="icon-icon-0" data-fill-palette-color="quaternary" id="icon-0"><g fill="#97978d" data-fill-palette-color="quaternary"><g fill="#97978d" data-fill-palette-color="quaternary"><path fill="#ffffff" d="M19.847 63.395c0.138 0.103 0.28 0.199 0.424 0.293 0.062 0.041 0.127 0.082 0.191 0.121 0.143 0.09 0.288 0.178 0.437 0.261 0.062 0.033 0.125 0.064 0.189 0.099 0.494 0.255 1.017 0.469 1.572 0.631 0.069 0.02 0.135 0.045 0.205 0.063 0.001-0.002 0.002-0.004 0.003-0.005 1.792 0.477 3.896 0.422 6.37-0.476 1.773-0.643 2.754-1.986 3.286-3.444 0.006-0.015 0.01-0.029 0.016-0.044 0.121-0.335 0.219-0.677 0.295-1.018 0.416 0.066 0.856 0.115 1.346 0.115 0.658 0 1.39-0.083 2.178-0.257 0.105 0.902 0.077 2.593 0.103 4.138 0.011 0.66 0.606 1.013 1.24 1.022 0.063 0.002 0.124-0.002 0.184-0.012 0.548-0.084 1.036-0.578 1.071-1.173 0.438-7.402-1.415-8.561-1.719-8.817-0.304-0.259-0.712-0.365-1.093-0.306-0.236 0.036-0.462 0.135-0.646 0.3-0.48 0.432-0.437 1.114-0.121 1.688 0.075 0.136 0.194 0.302 0.408 0.847-1.103 0.243-1.946 0.217-2.677 0.097 0.003-0.193 0.003-0.378 0-0.553 0-0.004 0-0.007 0-0.011-0.008-0.398-0.031-0.741-0.055-1.005-0.002-0.011-0.002-0.018-0.003-0.027-0.016-0.169-0.031-0.306-0.044-0.399-0.001-0.006-0.001-0.01-0.002-0.019-0.005-0.036-0.009-0.066-0.013-0.088-0.001-0.009-0.002-0.011-0.002-0.019-0.002-0.017-0.005-0.029-0.005-0.029s-0.002-0.014-0.003-0.031c-0.001-0.008-0.001-0.009-0.003-0.018-0.002-0.028-0.008-0.064-0.018-0.113-0.001-0.007-0.002-0.013-0.003-0.018-0.008-0.047-0.02-0.102-0.034-0.165-0.002-0.008-0.004-0.017-0.006-0.024-0.017-0.067-0.037-0.142-0.061-0.223-0.005-0.017-0.01-0.032-0.015-0.048-0.054-0.17-0.127-0.364-0.228-0.572-0.009-0.019-0.018-0.036-0.027-0.056-0.052-0.104-0.109-0.209-0.175-0.317-0.009-0.015-0.02-0.031-0.029-0.046-0.064-0.102-0.134-0.204-0.211-0.308-0.01-0.015-0.019-0.028-0.029-0.041-0.084-0.109-0.178-0.218-0.278-0.325-0.02-0.021-0.041-0.041-0.061-0.063-0.106-0.109-0.221-0.218-0.348-0.321-0.003-0.003-0.008-0.006-0.011-0.01-0.123-0.1-0.258-0.196-0.401-0.289-0.029-0.019-0.058-0.038-0.088-0.058-0.147-0.092-0.305-0.179-0.475-0.26-0.031-0.014-0.063-0.028-0.095-0.043-0.16-0.072-0.33-0.141-0.511-0.202-0.028-0.011-0.056-0.021-0.085-0.03-0.198-0.064-0.411-0.121-0.635-0.17-0.051-0.01-0.103-0.021-0.155-0.029-0.233-0.046-0.476-0.086-0.737-0.113-0.021-0.002-0.043-0.002-0.064-0.003-0.247-0.022-0.512-0.033-0.785-0.036-0.039-0.002-0.072-0.006-0.111-0.006-0.024 0-0.054 0.004-0.079 0.004-0.289 0.002-0.591 0.014-0.91 0.039-0.063 0.007-0.129 0.015-0.193 0.02-0.293 0.029-0.6 0.066-0.92 0.117-0.06 0.009-0.116 0.016-0.178 0.026-0.358 0.06-0.736 0.137-1.127 0.226-0.091 0.021-0.184 0.044-0.277 0.065-0.411 0.1-0.834 0.21-1.282 0.344-0.307 0.092-0.614 0.167-0.918 0.232-0.104 0.022-0.205 0.037-0.309 0.058-0.2 0.038-0.401 0.074-0.598 0.103-0.118 0.016-0.234 0.029-0.352 0.042-0.181 0.021-0.361 0.039-0.539 0.051-0.118 0.01-0.235 0.018-0.351 0.022-0.176 0.011-0.349 0.015-0.521 0.017-0.125 0.002-0.25 0.005-0.373 0.004-0.056-0.001-0.112-0.002-0.167-0.003-0.194-0.005-0.385-0.011-0.571-0.022-0.029-0.002-0.059-0.003-0.088-0.004-0.213-0.015-0.421-0.033-0.623-0.054-0.045-0.004-0.086-0.009-0.129-0.013-0.165-0.02-0.325-0.039-0.48-0.061-0.041-0.006-0.082-0.012-0.121-0.018-0.184-0.027-0.363-0.056-0.532-0.087-0.019-0.002-0.035-0.007-0.053-0.01-0.151-0.028-0.296-0.057-0.434-0.085-0.037-0.009-0.075-0.017-0.11-0.022-0.137-0.031-0.269-0.062-0.391-0.091-0.008-0.002-0.017-0.006-0.025-0.007-0.131-0.032-0.251-0.064-0.361-0.094-0.027-0.008-0.05-0.015-0.075-0.021-0.085-0.022-0.164-0.047-0.235-0.067-0.018-0.005-0.037-0.01-0.054-0.016-0.08-0.024-0.15-0.047-0.208-0.066-0.013-0.004-0.022-0.006-0.035-0.01-0.042-0.015-0.078-0.026-0.104-0.036-0.01-0.004-0.023-0.008-0.031-0.011-0.015-0.006-0.033-0.012-0.033-0.012s0.002 0.014 0.007 0.037c0.003 0.01 0.004 0.021 0.007 0.035 0.005 0.021 0.009 0.045 0.016 0.075 0.005 0.026 0.011 0.053 0.018 0.086 0.006 0.027 0.012 0.057 0.02 0.09 0.009 0.043 0.019 0.085 0.03 0.135 0.007 0.029 0.015 0.062 0.022 0.094 0.028 0.121 0.062 0.256 0.101 0.411 0.006 0.021 0.01 0.04 0.017 0.062 0.021 0.081 0.043 0.167 0.067 0.256 0.011 0.038 0.021 0.075 0.031 0.115 0.026 0.094 0.053 0.191 0.082 0.294 0.011 0.035 0.021 0.071 0.032 0.109 0.033 0.113 0.066 0.226 0.104 0.345 0.002 0.01 0.005 0.019 0.008 0.028 0.125 0.406 0.274 0.855 0.448 1.333 0.009 0.026 0.019 0.051 0.029 0.077 0.054 0.148 0.111 0.299 0.171 0.452 0.012 0.03 0.023 0.06 0.035 0.09 0.264 0.672 0.577 1.384 0.943 2.102 0.01 0.02 0.02 0.038 0.029 0.058 0.086 0.167 0.175 0.335 0.268 0.501 0.017 0.032 0.035 0.062 0.052 0.094 0.095 0.171 0.192 0.34 0.293 0.51 0.001 0.002 0.003 0.004 0.004 0.006 0.322 0.539 0.677 1.068 1.065 1.577 0.019 0.026 0.037 0.05 0.056 0.074 0.116 0.148 0.235 0.296 0.356 0.441 0.033 0.038 0.065 0.076 0.098 0.114 0.123 0.144 0.249 0.286 0.378 0.424 0.021 0.022 0.043 0.044 0.065 0.066 0.414 0.438 0.862 0.843 1.342 1.208C19.757 63.325 19.801 63.362 19.847 63.395z" data-fill-palette-color="quaternary"></path><path fill="#ffffff" d="M44.517 58.801c-1.184 0.039-2.608 1.454-2.432 2.961 0.218 1.879-0.135 3.254-0.709 3.841 1.476 0.14 2.29-1.334 2.298-1.346 0.372-0.77 1.142-1.258 1.852-0.771 0.472 0.322 1.608 1.158 0.375 2.616-0.189 0.225-2.681 3.171-7.739 2.843-4.222-0.275-4.426-2.037-4.78-2.487-0.783 0.899-1.802 1.273-3.121 1.751-1.667 0.604-3.445 0.661-4.987 0.661-1.247 0-3.464-0.571-4.411-1.307-4.492 5.143 0.263 15.409 2.125 18.589 4.623 7.889 10.197 9.011 13.23 7.403 1.749-0.926 2.354-0.217 3.694 0.092 12.241 2.814 17.499-12.395 18.147-20.596C58.369 69.088 56.775 57.188 44.517 58.801z" data-fill-palette-color="quaternary"></path></g><g fill="#97978d" data-fill-palette-color="quaternary"><path fill="none" d="M72.604 15.464c0.016-0.595 0.031-1 0.053-1.588-1.078 0.129-2.861 0.302-3.572 0.302-0.582 0-1.896-0.119-2.945-0.231 0.17 4.755 0.197 7.595-0.061 12.365-0.021 0.385-0.041 1.396-0.062 1.789 2.6 0 4.162 0 6.764 0-0.125-1.865-0.182-4.36-0.211-6.222C72.521 19.117 72.537 18.224 72.604 15.464z"></path><path fill="#ffffff" d="M65.514 13.876c0.188 0.022 0.404 0.046 0.625 0.071-0.002-0.024-0.002-0.044-0.004-0.069L65.514 13.876z" data-fill-palette-color="quaternary"></path><g fill="#97978d" data-fill-palette-color="quaternary"><path fill="none" d="M65.514 13.876c0.188 0.022 0.404 0.046 0.625 0.071-0.002-0.024-0.002-0.044-0.004-0.069L65.514 13.876z"></path><path fill="none" d="M62.062 72.267c-0.053 0.647-0.127 1.331-0.227 2.043h18.533V52.102H58.518c-0.189-0.251-0.059 5.094-0.096 7.74C61.732 63.824 62.279 69.507 62.062 72.267z"></path><path fill="none" d="M72.604 15.464c0.016-0.595 0.031-1 0.053-1.588-1.078 0.129-2.861 0.302-3.572 0.302-0.582 0-1.896-0.119-2.945-0.231 0.17 4.755 0.197 7.595-0.061 12.365-0.021 0.385-0.041 1.396-0.062 1.789 2.6 0 4.162 0 6.764 0-0.125-1.865-0.182-4.36-0.211-6.222C72.521 19.117 72.537 18.224 72.604 15.464z"></path><path fill="#ffffff" d="M76.426 35.443c-0.479-0.321-0.713-1.357-0.865-1.956-0.324-1.282-0.479-2.61-0.607-3.926-0.322-3.27-0.391-6.566-0.408-9.85-0.01-2.436 0.02-3.004 0.09-5.438 0.008-0.206 0.014-0.416 0.023-0.624h-0.002c0.014-0.042 0.041-0.116 0.092-0.22 0.184-0.371 0.365-0.751 0.506-1.145 0.355-0.99 1.076-1.912 0.734-2.922-0.143-0.422-1.143-3.048-1.662-3.445C73.998 5.666 70.828 4.998 69.1 5c-1.732-0.002-4.305 0.666-4.633 0.918-0.518 0.396-1.518 3.022-1.66 3.445-0.346 1.011 0.375 1.932 0.734 2.922 0.139 0.394 0.32 0.773 0.506 1.145 0.053 0.104 0.078 0.179 0.092 0.22 0.004 0.11 0.008 0.22 0.012 0.335 0.027 0.883 0.049 1.767 0.066 2.651 0.055 3.042 0.055 4.218-0.039 7.26-0.092 3.017-0.207 6.098-0.822 9.063-0.16 0.765-0.336 1.765-0.861 2.369-0.344 0.393-1.104 0.787-1.578 1.174-0.928 0.752-1.742 1.638-2.469 2.58-1.449 1.867-2.441 2.801-2.654 6.41v12.009c1.027 0.664 1.896 1.46 2.629 2.341 0.037-2.646-0.094-7.991 0.096-7.74h21.852V74.31H61.836c-0.639 4.578-2.295 10.295-5.174 14.934 0.02 0.06 0.041 0.12 0.068 0.179 0.32 0.718 0.908 1.991 1.471 2.546 0.594 0.578 1.256 0.787 2.02 1.052 1.729 0.6 3.488 0.956 5.311 1.119 4.312 0.383 9.344 0.192 13.445-1.259 0.732-0.256 1.188-0.486 1.752-1.045 0.598-0.585 1.16-1.386 1.48-2.145C82.748 88.394 83 87.145 83 87.002V44.891C82.521 39.786 79.641 37.487 76.426 35.443zM66.016 28.101c0.021-0.393 0.041-1.403 0.062-1.789 0.258-4.771 0.23-7.61 0.061-12.365-0.221-0.024-0.438-0.048-0.625-0.071l0.621 0.002c0.002 0.024 0.002 0.044 0.004 0.069 1.049 0.112 2.363 0.231 2.945 0.231 0.711 0 2.494-0.173 3.572-0.302-0.021 0.588-0.037 0.993-0.053 1.588-0.066 2.76-0.082 3.653-0.035 6.415 0.029 1.862 0.086 4.357 0.211 6.222C70.178 28.101 68.615 28.101 66.016 28.101z" data-fill-palette-color="quaternary"></path></g><polygon fill="#ffffff" points="72.656,13.876 72.656,13.876 72.656,13.876   " data-fill-palette-color="quaternary"></polygon></g></g></svg></g></svg></g></svg></g></svg></g></svg></g><g></g></svg></g></svg></g></svg></g><defs></defs></svg><rect width="97.83224064708415" height="97.83224064708415" fill="none" stroke="none" visibility="hidden"></rect></g></svg></g></svg>